<?xml version="1.0" encoding="utf-8"?>
<!-- Generator: Adobe Illustrator 16.0.3, SVG Export Plug-In . SVG Version: 6.00 Build 0)  -->
<!DOCTYPE svg PUBLIC "-//W3C//DTD SVG 1.1//EN" "http://www.w3.org/Graphics/SVG/1.1/DTD/svg11.dtd">
<svg version="1.1" id="Capa_1" xmlns="http://www.w3.org/2000/svg" xmlns:xlink="http://www.w3.org/1999/xlink" x="0px" y="0px"
	 width="1278px" height="612px" viewBox="0 0 1278 612" enable-background="new 0 0 1278 612" xml:space="preserve">
<rect x="0" fill="#008BC7" width="1278" height="612"/>
<circle fill="#FFFFFF" fill-opacity="0.03" cx="985.5" cy="343.5" r="194.5"/>
<circle fill="#FFFFFF" fill-opacity="0.06" cx="892" cy="286" r="154"/>
<path fill="#C4C4C4" fill-opacity="0.23" d="M1138,376h39c1.104,0,2,0.896,2,2l0,0c0,1.104-0.896,2-2,2h-39c-1.105,0-2-0.896-2-2
	l0,0C1136,376.896,1136.895,376,1138,376z"/>
<path fill="#C4C4C4" fill-opacity="0.23" d="M1138,266h68c1.104,0,2,0.896,2,2l0,0c0,1.104-0.896,2-2,2h-68c-1.105,0-2-0.896-2-2
	l0,0C1136,266.896,1136.895,266,1138,266z"/>
<path fill="#C4C4C4" fill-opacity="0.23" d="M1184,316h30c1.104,0,2,0.896,2,2l0,0c0,1.104-0.896,2-2,2h-30c-1.105,0-2-0.896-2-2
	l0,0C1182,316.896,1182.895,316,1184,316z"/>
<circle fill="#C4C4C4" fill-opacity="0.17" cx="721.5" cy="229.5" r="2.5"/>
<circle fill="#C4C4C4" fill-opacity="0.17" cx="1136.5" cy="225.5" r="5.5"/>
<circle fill="#C4C4C4" fill-opacity="0.17" cx="705.5" cy="290.5" r="5.5"/>
<circle fill="#C4C4C4" fill-opacity="0.17" cx="1181.5" cy="236.5" r="3.5"/>
<path fill="#C4C4C4" fill-opacity="0.23" d="M766,139h89c1.104,0,2,0.896,2,2l0,0c0,1.104-0.896,2-2,2h-89c-1.105,0-2-0.896-2-2l0,0
	C764,139.896,764.895,139,766,139z"/>
<path fill="#C4C4C4" fill-opacity="0.23" d="M733,177h39c1.104,0,2,0.896,2,2l0,0c0,1.104-0.896,2-2,2h-39c-1.105,0-2-0.896-2-2l0,0
	C731,177.896,731.895,177,733,177z"/>
<path fill="#C4C4C4" fill-opacity="0.23" d="M721,272h61c1.104,0,2,0.896,2,2l0,0c0,1.104-0.896,2-2,2h-61c-1.105,0-2-0.896-2-2l0,0
	C719,272.896,719.895,272,721,272z"/>
<path fill="#C4C4C4" fill-opacity="0.23" d="M721,177h4c1.104,0,2,0.896,2,2l0,0c0,1.104-0.896,2-2,2h-4c-1.105,0-2-0.896-2-2l0,0
	C719,177.896,719.895,177,721,177z"/>
<path fill="#C4C4C4" fill-opacity="0.23" d="M1187,376h4c1.104,0,2,0.896,2,2l0,0c0,1.104-0.896,2-2,2h-4c-1.105,0-2-0.896-2-2l0,0
	C1185,376.896,1185.895,376,1187,376z"/>
<path fill="#7A6FD3" d="M754.888,140.268c0.205,0,0.378,0.07,0.518,0.21c0.141,0.131,0.21,0.299,0.21,0.504s-0.069,0.378-0.21,0.518
	c-0.14,0.14-0.313,0.21-0.518,0.21h-1.96v1.974c0,0.205-0.07,0.378-0.21,0.518c-0.141,0.131-0.313,0.196-0.519,0.196
	s-0.378-0.065-0.518-0.196c-0.141-0.14-0.21-0.313-0.21-0.518v-1.974h-1.96c-0.205,0-0.378-0.07-0.519-0.21
	c-0.14-0.14-0.21-0.313-0.21-0.518s0.07-0.373,0.21-0.504c0.141-0.14,0.313-0.21,0.519-0.21h1.96v-1.974
	c0-0.205,0.069-0.378,0.21-0.518c0.14-0.14,0.313-0.21,0.518-0.21s0.378,0.07,0.519,0.21c0.14,0.14,0.21,0.313,0.21,0.518v1.974
	H754.888z"/>
<path fill="#7A6FD3" d="M801.584,119.656c0.151,0.176,0.228,0.36,0.228,0.552c0,0.232-0.092,0.436-0.276,0.612
	c-0.176,0.168-0.38,0.252-0.611,0.252c-0.24,0-0.444-0.1-0.612-0.3l-2.256-2.76l-2.28,2.76c-0.176,0.2-0.38,0.3-0.612,0.3
	c-0.224,0-0.428-0.084-0.611-0.252c-0.177-0.176-0.265-0.38-0.265-0.612c0-0.2,0.072-0.384,0.217-0.552l2.46-2.928l-2.376-2.844
	c-0.152-0.176-0.229-0.36-0.229-0.552c0-0.232,0.088-0.432,0.264-0.6c0.185-0.176,0.389-0.264,0.612-0.264
	c0.24,0,0.448,0.104,0.624,0.313l2.196,2.652l2.172-2.652c0.176-0.208,0.384-0.313,0.624-0.313c0.224,0,0.424,0.088,0.6,0.264
	c0.185,0.168,0.276,0.368,0.276,0.6c0,0.2-0.072,0.384-0.216,0.552l-2.376,2.844L801.584,119.656z"/>
<path fill="#7A6FD3" d="M1161.85,320.432c0.18,0.205,0.26,0.42,0.26,0.645c0,0.271-0.1,0.509-0.32,0.714
	c-0.199,0.196-0.439,0.294-0.71,0.294c-0.279,0-0.52-0.117-0.72-0.35l-2.63-3.221l-2.66,3.221c-0.2,0.232-0.439,0.35-0.71,0.35
	c-0.26,0-0.5-0.098-0.72-0.294c-0.2-0.205-0.3-0.442-0.3-0.714c0-0.233,0.08-0.448,0.25-0.645l2.869-3.416l-2.77-3.317
	c-0.18-0.205-0.27-0.421-0.27-0.644c0-0.271,0.1-0.505,0.31-0.701c0.21-0.205,0.45-0.308,0.71-0.308c0.28,0,0.52,0.121,0.73,0.364
	l2.56,3.094l2.54-3.094c0.2-0.243,0.439-0.364,0.72-0.364c0.271,0,0.5,0.103,0.7,0.308c0.22,0.196,0.33,0.43,0.33,0.701
	c0,0.232-0.09,0.447-0.26,0.644l-2.771,3.317L1161.85,320.432z"/>
<path fill="#8A7FE3" d="M768.056,202.104c0.101,0.117,0.151,0.24,0.151,0.368c0,0.155-0.061,0.291-0.184,0.408
	c-0.117,0.112-0.253,0.168-0.408,0.168c-0.16,0-0.296-0.067-0.408-0.2l-1.504-1.84l-1.52,1.84c-0.117,0.133-0.253,0.2-0.408,0.2
	c-0.148,0-0.285-0.056-0.408-0.168c-0.117-0.117-0.176-0.253-0.176-0.408c0-0.133,0.048-0.256,0.145-0.368l1.64-1.952l-1.584-1.896
	c-0.101-0.117-0.152-0.24-0.152-0.368c0-0.155,0.06-0.288,0.177-0.4c0.122-0.117,0.259-0.176,0.407-0.176
	c0.16,0,0.299,0.069,0.416,0.208l1.464,1.768l1.448-1.768c0.117-0.139,0.256-0.208,0.416-0.208c0.149,0,0.283,0.059,0.4,0.176
	c0.123,0.112,0.184,0.245,0.184,0.4c0,0.133-0.048,0.256-0.144,0.368l-1.584,1.896L768.056,202.104z"/>
</svg>
