<?xml version="1.0" encoding="utf-8"?>
<!-- Generator: Adobe Illustrator 16.0.3, SVG Export Plug-In . SVG Version: 6.00 Build 0)  -->
<!DOCTYPE svg PUBLIC "-//W3C//DTD SVG 1.1//EN" "http://www.w3.org/Graphics/SVG/1.1/DTD/svg11.dtd">
<svg version="1.1" xmlns="http://www.w3.org/2000/svg" xmlns:xlink="http://www.w3.org/1999/xlink" x="0px" y="0px" width="900px"
	 height="900px" viewBox="0 0 900 900" enable-background="new 0 0 900 900" xml:space="preserve">
<g id="bg">
</g>
<g id="scholars">
	<g id="woman_17_">
		<path fill="#E1E1E1" d="M547.283,431.69c-0.181,0.039-0.365,0.082-0.555,0.127l0.526-0.747L547.283,431.69z"/>
		<path fill="#3C2417" d="M683.046,275.688c-0.062,0.452-0.146,0.845-0.229,1.26c-0.847,4.297-1.824,8.305-2.911,11.963
			c-1.873,6.311-3.922,11.55-6.622,15.52c-1.246,1.864-2.657,3.44-4.258,4.729c-3.064,2.476-6.874,3.86-11.76,4.032l-72.963,2.548
			c-5.104,0.178-9.119-1.052-12.434-3.5c-1.528-1.122-2.887-2.503-4.157-4.122c-2.97-3.772-5.38-8.855-7.688-15.018
			c-1.339-3.575-2.592-7.505-3.738-11.732c-0.113-0.407-0.225-0.795-0.315-1.204c-13.196-49.942-12.91-139.29,12.075-167.076
			c10.251-11.396,23.069-21.553,44.925-22.317c17.324-0.604,29.404,5.081,39.146,12.786c2.558,1.985,4.939,4.133,7.229,6.343
			c0.912,0.888,1.809,1.855,2.667,2.882C686.635,141.909,692.395,226.718,683.046,275.688z"/>
		<g>
			<polygon fill="#F7CDB9" points="641.294,270.219 641.294,244.778 601.405,244.778 601.405,270.219 591.433,272.189 
				601.405,335.298 641.294,335.3 651.267,272.189 			"/>
			<polygon fill="#DEB4A0" points="601.405,244.944 601.405,254.19 641.294,270.216 641.294,244.944 			"/>
		</g>
		<g>
			<path fill="#F7CDB9" d="M563.21,458.585h58.223h58.222c26.717,45.971-2.356,122.135-15.989,267.94
				c-2.464,20.737,4.665,69.932,6.605,117.714l4.027,39.32h-25.929l-3.861-39.32l-13.86-118.229l-7.026-189.641h-2.188h-2.188
				l-4.931,307.87l0.126,39.32h-25.929l0.039-39.32C588.896,619.066,530.077,515.604,563.21,458.585z"/>
			<path fill="#221F1F" d="M614.373,861.263c0,0-2.921,17.029-12.874,17.029c-9.951,0-12.871-17.029-12.871-17.029
				s-2.687,9.902-2.687,16.458c0,12.15,4.818,18.985,15.558,18.985c10.74,0,15.56-6.835,15.56-18.985
				C617.059,871.165,614.373,861.263,614.373,861.263z"/>
			<path fill="#221F1F" d="M646.224,862.45c0,0,4.393,16.711,14.307,15.845c9.916-0.866,11.339-18.087,11.339-18.087
				s3.537,9.63,4.109,16.164c1.058,12.104-3.145,19.33-13.843,20.268c-10.699,0.933-16.094-5.452-17.153-17.556
				C644.412,872.551,646.224,862.45,646.224,862.45z"/>
		</g>
		<g>
			<g>
				<path fill="#B4A6CE" d="M594.978,270.042l1.515,5.68c2.615,7.495,9.323,8.943,25.249,8.943c17.968,0,24.82-4.797,26.948-11.558
					l0.816-3.066c33.092,12.435,22.938,116.07,22.938,116.07l0.209,86.079l-50.493,0.01l-53.201-0.01l1.387-86.079
					C570.346,386.113,561.886,282.478,594.978,270.042z"/>
				<path fill="#9B88BE" d="M621.431,284.668l12.513,13.175l21.395-25.526c-0.033-0.02-13.352-6.649-13.352-6.649l-5.022,4.647
					L621.431,284.668z"/>
				<polygon fill="#9B88BE" points="600.867,265.674 621.431,284.666 608.919,297.849 587.526,272.311 				"/>
			</g>
			<path fill="#32303A" d="M546.744,300.042c3.246-19,14.33-19.006,47.42-31.438c0,0,27.272,59.501,27.272,59.506
				c0-0.005,27.266-59.506,27.266-59.506c33.094,12.433,44.173,12.438,47.422,31.438c0,0-5.7,28.159-5.835,27.987
				c0,0,10.736,319.022,12.885,351.879c0,0-36.16,11.965-81.737,11.965c-45.581,0-81.74-11.965-81.74-11.965
				c1.382-21.147,17.646-246.412,17.646-246.412l-4.765-101.479C552.445,332.19,541.497,330.749,546.744,300.042z"/>
			<path fill="#FF9201" d="M575.855,274.814l45.536,96.921l45.619-96.938c-4.018-1.237-8.321-2.612-12.883-4.221l-32.687,71.305
				l-32.702-71.305C584.181,272.185,579.892,273.56,575.855,274.814z"/>
		</g>
		<g>
			<g>
				<path fill="#F7CDB9" d="M720.702,76.906l7.241,37.107l23.786-4.64l-7.24-37.107c-1.431-7.334-7.915-12.241-14.482-10.959
					C723.438,62.588,719.273,69.572,720.702,76.906z"/>
				<path fill="#F7CDB9" d="M715.216,85.329c2.525,12.945,11.475,20.61,11.989,20.905c2.023,1.156,4.443,0.31,5.404-1.885
					c0.958-2.194,0.099-4.903-1.92-6.064c-0.04-0.024-0.43-0.41-1.015-1.108c-0.586-0.699-1.365-1.71-2.197-2.985
					c-1.658-2.549-3.505-6.15-4.335-10.408c-0.478-2.446-2.638-4.081-4.827-3.653C716.126,80.557,714.737,82.884,715.216,85.329z"/>
			</g>
			<path fill="#32303A" d="M690.289,328.029l78.954-116.362c2.901-3.693,4.054-8.467,3.154-13.076L750.59,97.04l-27.724,6.188
				l16.401,94.291c0,0-40.351,66.506-72.257,77.278c-2.226,0.752,16.514,19.904,16.514,19.904L690.289,328.029z"/>
			<g>
				
					<rect x="708.807" y="-3.026" transform="matrix(0.866 -0.5 0.5 0.866 64.106 369.1023)" fill="#FFFFFF" width="23.936" height="135.918"/>
				<g>
					<polygon fill="#DB4930" points="720.345,40.246 722.341,43.725 700.89,54.395 698.889,50.958 					"/>
					<path fill="#F05D44" d="M714.739,34.756c-3.146,1.369-4.193,6.313-4.526,8.814c-2.989-1.255-9.803-3.67-12.701-1.019
						c-1.37,1.264-1.609,3.216-0.705,5.831c0.516,1.493,1.54,2.53,2.957,3c3.27,1.085,8.051-1.262,10.594-2.744
						c0.163,5.181-0.901,10.456-2.863,15.202c2.859,0.455,5.718,0.91,8.577,1.365c-0.284-5.889-1.669-11.962-4.425-17.248
						c3.2,5.029,7.767,9.264,12.724,12.457c1.037-2.705,2.073-5.409,3.108-8.112c-5.01-0.663-10.028-2.336-14.387-4.993
						c2.063-1.351,6.197-4.287,7.781-7.029c0.372-0.644,0.603-1.278,0.632-1.878c0.042-0.922-0.335-1.749-1.063-2.332
						C717.897,34.041,715.935,34.236,714.739,34.756z M700.761,48.37c-0.336-0.11-0.709-0.32-0.952-1.025
						c-0.377-1.087-0.462-1.955-0.242-2.339c0.025-0.043,0.055-0.081,0.09-0.113c0.976-0.893,4.997-0.073,8.574,1.305
						C705.612,47.646,702.38,48.908,700.761,48.37z M712.879,47.18c-0.726-0.451-1.434-0.929-2.12-1.436l-0.35-0.513l0.173-0.384
						l0.814,0.062L712.879,47.18z M718.295,38.422c-0.311,0.899-2.315,2.852-4.796,4.721c0.426-2.348,1.313-4.958,2.509-5.477
						C716.673,37.377,717.589,37.886,718.295,38.422z"/>
					<circle fill="#DB4930" cx="711.375" cy="47.082" r="3.989"/>
				</g>
			</g>
			<path fill="#F7CDB9" d="M745.231,70.858c2.309,8.619,2.602,16.028-3.623,17.696c-6.223,1.668-13.142-3.967-15.45-12.585
				c-2.309-8.618,0.865-16.957,7.088-18.625C739.472,55.676,742.923,62.241,745.231,70.858z"/>
		</g>
		<g>
			<g>
				<path fill="#F7CDB9" d="M561.618,430.963c-2.764,0.003-26.245,5.147-17.729,11.402c2.962,2.178,9.697-2.682,12.97-3.357
					c2.396-0.495,6.045,0.194,7.545-2.163C565.748,434.737,564.391,430.932,561.618,430.963
					C552.393,430.969,563.342,430.944,561.618,430.963z"/>
				<path fill="#F7CDB9" d="M562.941,435.855c-7.57-0.591-17.208-10.797-18.504-10.236c-0.567,0.245-10.38,16.874-9.784,18.685
					c0.642,1.965,20.24,17.977,28.325,18.72c6.82,0.627,16.009-5.65,16.977-13.796C580.775,442.331,569.763,436.33,562.941,435.855z
					"/>
			</g>
			<path fill="#32303A" d="M541.319,453.637c-13.337-11.571-22.927-28.154-30.45-42.702c-4.099-7.924-8.688-17.422-11.652-27.811
				c-4.037-14.126-0.337-25.67,3.34-34.151c6.416-14.803,27.187-59.228,73.299-74.159l-5.306,14.405l11.547,24.604
				c-14.547,7.343-46.104,34.738-51.541,47.284c-2.972,6.854-2.981,10.19-1.997,13.636c2.229,7.806,6.009,15.587,9.414,22.171
				c6.657,12.869,11.862,24.288,19.407,33.937L541.319,453.637z"/>
		</g>
		<g>
			<g>
				<path fill="#F7CDB9" d="M665.213,174.494l-0.725-20.731c-0.77-22.017-27.23-48.942-47.404-48.237
					c-20.176,0.705-44.693,29.41-43.924,51.427l0.722,20.729c-5.603,0.195-9.989,4.816-9.799,10.32l0.362,10.365
					c0.192,5.504,4.891,9.808,10.497,9.612c0.769,22.016,27.256,49.74,47.431,49.034c20.176-0.703,44.665-30.206,43.896-52.223
					c5.604-0.197,9.991-4.817,9.799-10.321l-0.362-10.366C675.515,178.599,670.814,174.297,665.213,174.494z"/>
				<path fill="#F7CDB9" d="M621.086,220.14l1.287,36.875c20.176-0.703,44.665-30.206,43.896-52.223
					c5.604-0.197,9.991-4.817,9.799-10.321l-0.362-10.366c-0.191-5.505-4.892-9.808-10.493-9.61l-0.725-20.731
					c-0.77-22.017-27.229-48.942-47.404-48.237l2.818,80.727c-6.86,15.723-9.033,32.25-9.033,32.25L621.086,220.14z"/>
				<g>
					<g>
						<path fill="#F7CDB9" d="M602.961,189.89c0.305,4.339-2.969,8.104-7.309,8.408c-4.34,0.301-8.104-2.97-8.409-7.311
							c-0.301-4.339,2.968-8.102,7.308-8.406C598.894,182.277,602.657,185.549,602.961,189.89z"/>
						<path fill="#3C2417" d="M602.892,187.896c0.303,4.339-2.97,8.103-7.31,8.407c-4.34,0.303-8.104-2.969-8.406-7.308
							c-0.304-4.34,2.968-8.102,7.309-8.407C598.821,180.285,602.586,183.557,602.892,187.896z"/>
						<circle fill="#FFFFFF" cx="597.619" cy="185.895" r="1.969"/>
						<path fill="#3C2417" d="M604.388,181.823c-1.57-3.323-5.38-5.75-9.48-6.042c-2.515-0.185-7.203,0.348-11.063,5.603
							c-0.194,0.023-0.37,0.033-0.597,0.02c-0.449-0.025-1.08-0.147-1.698-0.388c-1.259-0.456-2.326-1.465-2.326-1.465
							c-0.075-0.066-0.19-0.087-0.284-0.039c-0.12,0.065-0.166,0.215-0.102,0.333c0,0,0.167,0.337,0.482,0.819
							c0.309,0.485,0.792,1.11,1.397,1.647c0.6,0.542,1.311,0.999,1.904,1.267c0.293,0.139,0.561,0.231,0.758,0.294
							c0.188,0.06,0.388,0.089,0.353,0.087c0.547,0.035,1.032-0.273,1.253-0.738c2.518-3.787,5.991-5.727,9.782-5.453
							c3.349,0.24,6.564,2.256,7.817,4.906c0.24,0.499,0.835,0.712,1.328,0.476C604.409,182.916,604.624,182.322,604.388,181.823z"
							/>
					</g>
					<g>
						<circle fill="#F7CDB9" cx="644.935" cy="188.699" r="7.876"/>
						<circle fill="#3C2417" cx="644.865" cy="186.705" r="7.877"/>
						<circle fill="#FFFFFF" cx="647.451" cy="184.156" r="1.969"/>
						<path fill="#3C2417" d="M635.07,180.753c1.335-3.425,4.964-6.113,9.039-6.689c2.493-0.36,7.208-0.153,11.423,4.819
							c0.197,0.01,0.373,0.008,0.598-0.022c0.448-0.055,1.068-0.225,1.668-0.505c1.222-0.542,2.218-1.623,2.218-1.623
							c0.07-0.072,0.185-0.101,0.28-0.059c0.125,0.054,0.181,0.201,0.125,0.326c0,0-0.143,0.347-0.425,0.849
							c-0.272,0.507-0.713,1.162-1.276,1.742c-0.563,0.583-1.238,1.085-1.813,1.394c-0.283,0.16-0.543,0.271-0.736,0.347
							c-0.185,0.072-0.38,0.117-0.349,0.11c-0.541,0.075-1.046-0.199-1.297-0.646c-2.776-3.604-6.377-5.296-10.139-4.759
							c-3.325,0.473-6.393,2.709-7.458,5.44c-0.205,0.514-0.78,0.767-1.291,0.567C635.125,181.843,634.871,181.264,635.07,180.753z"
							/>
					</g>
				</g>
			</g>
			<g>
				<path fill="#F05D44" d="M637.218,226.949c0.271,7.828-6.646,14.423-15.451,14.731c-8.807,0.308-16.169-5.789-16.443-13.618
					L637.218,226.949z"/>
				<path fill="#FFFFFF" d="M632.576,232.432l-22.588,0.789c-1.104,0.039-2.027-0.821-2.065-1.922l-0.116-3.323l26.578-0.928
					l0.114,3.323C634.539,231.47,633.677,232.393,632.576,232.432z"/>
			</g>
			<path fill="#383643" d="M672.149,169.88l-7.012,0.246c-4.104-2.576-11.427-2.323-18.06-2.078
				c-11.162,0.39-18.559,2.842-22.019,7.271c-1.27-0.667-3.105-0.81-5.17-0.738c-2.063,0.071-3.885,0.342-5.106,1.096
				c-3.758-4.176-11.309-6.106-22.473-5.715c-6.631,0.216-13.955,0.477-17.869,3.331l-7.007,0.246l0.262,7.574l3.089,1.577
				c0.477,11.815,6.724,25.311,22.836,24.748c13.248-0.464,21.206-7.939,23.646-22.216c0.179-1.036,0.229-2.033,0.179-2.994
				c0.173-0.797,1.172-1.615,2.651-1.667c1.48-0.051,2.537,0.695,2.765,1.475c0.017,0.965,0.137,1.956,0.383,2.978
				c3.435,14.072,11.893,20.973,25.144,20.512c16.109-0.563,21.4-14.46,21.052-26.28l2.972-1.79L672.149,169.88z M613.73,184.614
				c-2.146,12.542-8.763,18.831-20.235,19.232c-17.476,0.61-19.005-17.789-19.137-21.483c-0.197-5.672,12.425-6.621,18.148-6.82
				C605.132,175.102,614.725,179.266,613.73,184.614z M648.263,201.934c-11.47,0.401-18.514-5.412-21.528-17.773
				c-1.365-5.265,7.915-10.089,20.539-10.53c5.724-0.2,18.381-0.134,18.58,5.537C665.98,182.862,665.739,201.322,648.263,201.934z"
				/>
			<path fill="#3C2417" d="M574.6,252.574c-16.083-47.564-27.192-77.042-20.458-109.75c13.081-63.527,89.876-69.95,99.046-30.689
				c1.953,8.356,19.346,20.612,12.025,62.359c-0.686-0.217-2.247-1.79-4.32-4.28c-6.227-7.466-17.07-23.162-22.637-35.062
				C570.572,137.306,596.723,236.843,574.6,252.574z"/>
			<g>
				<polygon fill="#32303A" points="708.173,97.968 614.927,142.354 518.813,104.582 611.918,56.211 				"/>
				<path fill="#3C3A44" d="M674.543,135.121c0,0-38.007,13.302-59.378,14.047c-21.373,0.747-60.217-9.871-60.217-9.871
					l3.029-27.547c0,0,23.701-8.812,55.311-9.915c31.614-1.104,56.312,6.017,56.312,6.017L674.543,135.121z"/>
				<g>
					<path fill="#FF9201" d="M537.478,146.964c-0.827,0.028-1.52-0.618-1.547-1.443l-1.766-50.495
						c-0.025-0.826,0.617-1.519,1.443-1.548c0.827-0.028,1.521,0.618,1.549,1.443l1.763,50.496
						C538.95,146.242,538.304,146.934,537.478,146.964z"/>
					<path fill="#FF9201" d="M531.959,188.966c-0.771,0.027-1.418-0.575-1.445-1.346c-0.84-24.063,0.84-37.798,4.994-40.828
						c0.947-0.688,1.893-0.717,2.464-0.512c0.727,0.261,1.102,1.062,0.842,1.786c-0.233,0.641-0.889,1.005-1.536,0.907
						c-0.475,0.219-5.201,3.33-3.972,38.548C533.331,188.294,532.729,188.94,531.959,188.966z"/>
					<path fill="#FF9201" d="M535.541,191.504c-0.771,0.027-1.418-0.577-1.445-1.346c-0.634-18.11-0.761-40.343,2.217-43.417
						c0.459-0.473,0.949-0.571,1.189-0.542c0.774,0.002,1.395,0.63,1.394,1.399c0,0.48-0.244,0.901-0.612,1.15
						c-0.468,0.832-2.607,6.604-1.396,41.311C536.914,190.83,536.31,191.477,535.541,191.504z"/>
					<path fill="#FF9201" d="M545.912,188.479c-0.771,0.027-1.417-0.577-1.445-1.347c-1.229-35.218-6.162-37.993-6.651-38.178
						c-0.639,0.144-1.318-0.172-1.595-0.797c-0.312-0.704,0.01-1.53,0.715-1.842c0.556-0.243,1.503-0.279,2.494,0.341
						c4.354,2.732,6.989,16.317,7.829,40.38C547.287,187.805,546.682,188.452,545.912,188.479z"/>
					<path fill="#FF9201" d="M542.516,191.26c-0.769,0.028-1.415-0.576-1.442-1.347c-1.212-34.707-3.752-40.314-4.276-41.113
						c-0.383-0.222-0.657-0.625-0.689-1.104c-0.057-0.767,0.521-1.437,1.289-1.493c0.263-0.047,0.736,0.018,1.229,0.458
						c3.184,2.859,4.605,25.047,5.238,43.154C543.891,190.586,543.286,191.233,542.516,191.26z"/>
					<path fill="#FF9201" d="M539.121,194.04c-0.771,0.024-1.418-0.576-1.445-1.349l-1.572-45.049
						c-0.026-0.771,0.577-1.417,1.346-1.444c0.772-0.027,1.419,0.577,1.446,1.347l1.572,45.049
						C540.496,193.366,539.893,194.012,539.121,194.04z"/>
					<g>
						<circle fill="#EE9D25" cx="537.355" cy="143.475" r="4.986"/>
						<path fill="#FF9201" d="M537.564,149.455c-3.297,0.115-6.074-2.474-6.189-5.771s2.473-6.073,5.771-6.188
							c3.297-0.115,6.076,2.474,6.189,5.771C543.451,146.564,540.862,149.34,537.564,149.455z M537.216,139.488
							c-2.197,0.077-3.925,1.929-3.848,4.126c0.078,2.198,1.929,3.923,4.126,3.847c2.198-0.077,3.925-1.928,3.847-4.126
							C541.266,141.138,539.413,139.412,537.216,139.488z"/>
					</g>
				</g>
			</g>
		</g>
	</g>
	<g id="man_1_">
		<g>
			<polygon fill="#F6CCB8" points="383.687,224.837 376.229,221.399 376.229,197.689 328.361,197.689 328.361,221.399 
				320.871,224.631 322.866,291.87 328.361,291.87 328.361,302.18 376.229,302.18 376.229,291.87 381.692,291.87 			"/>
			<polygon fill="#F6CCB8" points="328.361,197.689 328.361,208.809 376.229,219.827 376.229,197.689 			"/>
		</g>
		<g>
			<path fill="#3C3A44" d="M361.242,462.817c-0.015,0-17.914,0-17.914,0c-0.015,0-65.011,0-65.011,0l-0.919,400.946h52.508
				l15.561-343.41c0.015,0,13.608,0,13.608,0c0.015,0,15.574,343.41,15.574,343.41h52.508l-0.918-400.946H361.242z"/>
			<g>
				<path fill="#221F1F" d="M371.943,877.145c0-14.913,12.406-20.069,28.914-20.069c16.507,0,28.913,5.156,28.913,20.069
					c0,7.459,0,15.711-28.912,15.711C371.943,892.855,371.943,884.604,371.943,877.145z"/>
				<path fill="#42404D" d="M429.718,875.993c-0.521,5.793-6.167,10.878-28.861,10.878c-22.696,0-28.34-5.085-28.861-10.878
					c-0.017,0.388-0.053,0.753-0.053,1.151c0,7.459,0,15.711,28.915,15.711c28.912,0,28.912-8.252,28.912-15.711
					C429.769,876.746,429.733,876.381,429.718,875.993z"/>
			</g>
			<g>
				<path fill="#221F1F" d="M332.615,877.145c0-14.913-12.406-20.069-28.913-20.069c-16.507,0-28.914,5.156-28.914,20.069
					c0,7.459,0,15.711,28.913,15.711C332.615,892.855,332.615,884.604,332.615,877.145z"/>
				<path fill="#42404D" d="M274.841,875.993c0.521,5.793,6.166,10.878,28.86,10.878c22.696,0,28.341-5.085,28.862-10.878
					c0.015,0.388,0.052,0.753,0.052,1.151c0,7.459,0,15.711-28.914,15.711c-28.913,0-28.913-8.252-28.913-15.711
					C274.788,876.746,274.826,876.381,274.841,875.993z"/>
			</g>
		</g>
		<g>
			<g>
				<path fill="#FFFFFF" d="M383.404,224.994l-1.779,6.681c-3.077,8.816-10.968,23.237-29.704,23.237
					c-21.138,0-29.203-18.36-31.704-26.314l-0.96-3.604c-38.933,14.628-26.988,136.552-26.988,136.552l-0.245,101.271l59.402,0.009
					l62.591-0.009l-1.63-101.271C412.387,361.546,422.337,239.622,383.404,224.994z"/>
				<polygon fill="#2675A8" points="363.803,251.616 359.207,260.416 345.224,260.416 340.761,251.616 352.282,242.199 				"/>
				<path fill="#E6E7E8" d="M352.284,242.199l-14.722,15.5l-25.171-30.031c0.042-0.021,15.708-7.823,15.708-7.823l5.91,5.467
					L352.284,242.199z"/>
				<polygon fill="#E6E7E8" points="376.478,219.852 352.285,242.197 367.005,257.707 392.17,227.659 				"/>
				<polygon fill="#2675A8" points="359.207,262.52 364.9,445.772 352.282,459.721 339.663,445.772 345.224,262.52 				"/>
			</g>
			<path fill="#32303A" d="M459.861,260.286c-3.821-22.354-36.567-22.361-75.5-36.988c0,0-32.081,70.003-32.081,70.007
				c0-0.004-32.081-70.007-32.081-70.007c-38.934,14.627-71.679,14.634-75.5,36.988c-6.173,36.125,26.417,51.9,26.574,51.699
				c0,0-10.285,321.895-12.81,360.554c0,0,32.08,11.967,93.817,11.967s93.817-11.967,93.817-11.967
				c-2.527-38.659-12.811-360.554-12.811-360.554C433.445,312.186,466.034,296.411,459.861,260.286z"/>
			<path fill="#32303A" d="M433.291,311.975c0,0,10.272,321.914,12.804,360.565c0,0-32.071,11.968-93.821,11.968
				c-61.729,0-93.82-11.968-93.82-11.968c2.533-38.651,12.824-360.565,12.824-360.565c-0.16,0.22-32.75-15.556-26.587-51.697
				c3.092-18.049,25.071-21.52,53.952-29.897c4.886-1.436,9.973-2.991,15.199-4.806c2.093-0.699,4.227-1.476,6.362-2.275
				l32.071,70.007l32.092-70.007c2.154,0.817,4.288,1.576,6.381,2.294c5.227,1.795,10.333,3.369,15.22,4.786
				c28.858,8.377,50.819,11.848,53.891,29.897C466.039,296.419,433.45,312.195,433.291,311.975z"/>
			<path fill="#FF9201" d="M405.967,230.38l-53.633,114.246L298.643,230.38c4.886-1.436,9.973-2.991,15.199-4.806l38.433,83.929
				l38.473-83.909C395.974,227.389,401.08,228.963,405.967,230.38z"/>
		</g>
		<g>
			<g>
				<path fill="#32303A" d="M408.155,349.241l-14.641,3.571l-3.889,0.937l-3.889,0.959l-3.869,0.937l-3.89,0.956l-3.888,0.939
					L264.49,384.264c-1.416,0.339-2.871,0.521-4.308,0.521c-4.029,0-7.978-1.357-11.189-3.932
					c-4.367-3.471-8.855-8.795-8.756-14.358l3.705-100.684l40.215-4.088l-3.57,80.078l87.239-19.766l3.889-0.876l3.91-0.898
					l3.89-0.876l3.889-0.879l3.909-0.876l14.221-3.231L408.155,349.241z"/>
			</g>
			<g>
				
					<rect x="283.725" y="243.327" transform="matrix(0.866 -0.5 0.5 0.866 -116.0309 189.5615)" fill="#FFFFFF" width="23.934" height="135.919"/>
				<g>
					<polygon fill="#DB4930" points="295.261,286.598 297.26,290.077 275.808,300.744 273.807,297.31 					"/>
					<path fill="#F05D44" d="M289.658,281.109c-3.146,1.367-4.194,6.311-4.526,8.814c-2.99-1.255-9.802-3.67-12.701-1.018
						c-1.371,1.262-1.608,3.215-0.705,5.832c0.516,1.491,1.538,2.53,2.955,2.999c3.271,1.084,8.053-1.265,10.594-2.747
						c0.163,5.183-0.9,10.458-2.863,15.202c2.861,0.456,5.719,0.912,8.58,1.366c-0.287-5.888-1.67-11.961-4.427-17.248
						c3.201,5.029,7.767,9.263,12.725,12.456c1.037-2.703,2.072-5.408,3.107-8.111c-5.009-0.664-10.027-2.339-14.386-4.994
						c2.062-1.351,6.198-4.286,7.781-7.029c0.373-0.646,0.603-1.278,0.631-1.877c0.044-0.922-0.333-1.75-1.062-2.332
						C292.814,280.392,290.854,280.587,289.658,281.109z M275.679,294.723c-0.334-0.111-0.709-0.322-0.953-1.025
						c-0.375-1.089-0.462-1.958-0.24-2.339c0.025-0.045,0.055-0.082,0.088-0.113c0.975-0.894,4.998-0.074,8.576,1.305
						C280.531,293.998,277.297,295.26,275.679,294.723z M287.799,293.53c-0.729-0.451-1.435-0.928-2.121-1.436l-0.35-0.513
						l0.172-0.384l0.814,0.063L287.799,293.53z M293.212,284.774c-0.31,0.9-2.314,2.85-4.795,4.719
						c0.428-2.346,1.313-4.956,2.509-5.475C291.591,283.729,292.508,284.239,293.212,284.774z"/>
					<circle fill="#DB4930" cx="286.294" cy="293.432" r="3.988"/>
				</g>
			</g>
			<g>
				<g>
					<path fill="#F6CCB8" d="M285.46,310.316l35.435,12.115l-7.713,28.906l-29.451-8.126c-8.977-2.396-10.534-14.795-8.405-22.778
						C277.456,312.451,276.484,307.919,285.46,310.316z"/>
					<path fill="#F6CCB8" d="M290.371,306.27c15.842,4.227,24.606,15.914,24.928,16.574c1.266,2.594,0.019,5.502-2.782,6.496
						c-2.797,0.992-6.087-0.298-7.36-2.886c-0.025-0.053-0.472-0.565-1.29-1.347c-0.817-0.781-2.007-1.833-3.52-2.962
						c-3.023-2.263-7.336-4.848-12.547-6.238c-2.992-0.797-4.842-3.603-4.132-6.263C284.38,306.983,287.379,305.474,290.371,306.27z
						"/>
				</g>
				<path fill="#32303A" d="M444.378,388.809c-1.544,0-3.101-0.2-4.626-0.608l-137.389-37.718l9.257-34.691l113.109,25.794
					l-2.928-77.552l38.816,3.765l3.705,103.287c-0.07,5.537-4.688,10.73-9.1,14.076
					C452.071,387.553,448.253,388.809,444.378,388.809z"/>
			</g>
			<g>
				<path fill="#F6CCB8" d="M424.652,339.632c-1.377,0.379-2.753,0.696-4.069,1.016l-14.62-3.33l-3.61-20.624
					c0,0,10.571-5.004,21.222-5.903c8.137-0.678,16.314,1.058,19.824,9.276C447.886,330.656,436.021,336.521,424.652,339.632z"/>
				<path fill="#F6CCB8" d="M414.995,308.592c-14.891,6.591-7.047,20.861-6.366,19.964c0.682-0.898,5.505-8.677,10.405-10.848
					c2.811-1.244,4.188-4.294,3.072-6.812C420.99,308.377,417.808,307.346,414.995,308.592z"/>
			</g>
		</g>
		<g id="man_2_">
			<g>
				<path fill="#F6CCB8" d="M404.515,128.119l1.62-21.063c0-27.544-26.328-49.862-53.851-49.862
					c-27.545,0-53.852,22.318-53.852,49.862l1.619,21.043c-1.542,0.372-2.931,1.078-4.093,2.073
					c-2.152,1.835-3.509,4.548-3.509,7.599v10.372c0,5.483,4.416,9.932,9.91,9.966c0,26.011,31.252,50.668,49.925,50.668
					c18.671,0,49.923-24.656,49.923-50.664c5.475-0.039,9.903-4.482,9.903-9.966v-10.372
					C412.11,133.091,408.869,129.19,404.515,128.119z"/>
				<path opacity="0.8" fill="#F7CDB9" d="M404.515,128.119l1.62-21.063c0-27.544-26.328-49.862-53.851-49.862
					c-0.01,0-0.01,70.804-0.01,70.804c-7.274,15.472-11.967,37.896-11.967,37.896h11.967v42.88
					c18.688-0.004,49.933-24.654,49.933-50.662c5.475-0.039,9.903-4.482,9.903-9.966v-10.372
					C412.11,133.091,408.869,129.19,404.515,128.119z"/>
				<g>
					<g>
						<circle fill="#F6CCB8" cx="329.156" cy="134.156" r="7.877"/>
						<circle fill="#3C2417" cx="329.156" cy="132.161" r="7.877"/>
						<circle fill="#FFFFFF" cx="331.829" cy="129.703" r="1.97"/>
					</g>
					<g>
						<circle fill="#F6CCB8" cx="375.029" cy="134.156" r="7.877"/>
						<circle fill="#3C2417" cx="375.029" cy="132.161" r="7.877"/>
						<circle fill="#FFFFFF" cx="377.702" cy="129.703" r="1.969"/>
					</g>
				</g>
			</g>
			<g>
				<path fill="#F05D44" d="M372.474,174.608c0,9.914-9.042,17.95-20.194,17.95c-11.154,0-20.194-8.036-20.194-17.95H372.474z"/>
				<path fill="#FFFFFF" d="M366.893,181.339h-29.668c-1.102,0-1.995-0.892-1.995-1.994v-4.737h33.657v4.737
					C368.887,180.448,367.994,181.339,366.893,181.339z"/>
			</g>
			<path fill="#3C2417" d="M404.138,59.966c-0.375-2.988-3.422-2.536-6.429-2.349c-9.379,0.586-1.698-2.573-20.85-13.849
				c-19.083-11.235-38.611-6.756-51.624,2.917c-52.514,14.489-24.8,95.078-24.8,95.078s-0.22-42.772,18.293-55.775
				c31.003,21.14,62.681,22.29,80.717,9.718c6.958,16.23,4.687,46.058,4.687,46.058s11.974-30.17,5.437-56.874
				C409.602,75.617,404.138,59.966,404.138,59.966z"/>
			<g>
				<polygon fill="#32303A" points="447.018,59.232 352.278,100.336 257.54,59.232 352.278,14.141 				"/>
				<path fill="#3C3A44" d="M412.114,95.188c0,0-38.449,11.967-59.835,11.967c-21.385,0-59.834-11.967-59.834-11.967l3.988-27.425
					c0,0,23.995-7.979,55.625-7.979c31.629,0,56.066,7.979,56.066,7.979L412.114,95.188z"/>
				<g>
					<path fill="#FF9201" d="M274.716,102.24c-0.825,0-1.495-0.67-1.495-1.496V50.217c0-0.826,0.67-1.495,1.495-1.495
						c0.827,0,1.497,0.669,1.497,1.495v50.527C276.212,101.57,275.543,102.24,274.716,102.24z"/>
					<path fill="#FF9201" d="M267.735,144.024c-0.771,0-1.396-0.624-1.396-1.396c0-24.076,2.157-37.745,6.416-40.629
						c0.97-0.654,1.916-0.65,2.48-0.426c0.717,0.287,1.066,1.101,0.779,1.816c-0.255,0.633-0.923,0.973-1.566,0.853
						c-0.483,0.203-5.316,3.146-5.316,38.387C269.132,143.4,268.507,144.024,267.735,144.024z"/>
					<path fill="#FF9201" d="M271.227,146.686c-0.771,0-1.397-0.625-1.397-1.396c0-18.121,0.646-40.344,3.73-43.312
						c0.477-0.458,0.97-0.538,1.209-0.501c0.771,0.029,1.372,0.678,1.342,1.447c-0.018,0.479-0.275,0.893-0.65,1.128
						c-0.497,0.815-2.838,6.51-2.838,41.238C272.623,146.06,271.997,146.686,271.227,146.686z"/>
					<path fill="#FF9201" d="M281.697,144.024c-0.771,0-1.396-0.624-1.396-1.396c0-35.241-4.833-38.184-5.316-38.387
						c-0.643,0.121-1.31-0.22-1.565-0.853c-0.287-0.715,0.062-1.529,0.779-1.816c0.563-0.224,1.511-0.228,2.479,0.426
						c4.258,2.884,6.417,16.553,6.417,40.629C283.094,143.4,282.468,144.024,281.697,144.024z"/>
					<path fill="#FF9201" d="M278.207,146.686c-0.771,0-1.396-0.625-1.396-1.396c0-34.728-2.342-40.422-2.838-41.238
						c-0.376-0.236-0.633-0.649-0.65-1.128c-0.029-0.769,0.57-1.417,1.342-1.447c0.263-0.039,0.732,0.043,1.209,0.501
						c3.083,2.967,3.729,25.191,3.729,43.312C279.603,146.06,278.979,146.686,278.207,146.686z"/>
					<path fill="#FF9201" d="M274.716,149.344c-0.771,0-1.396-0.625-1.396-1.396v-45.077c0-0.772,0.626-1.396,1.396-1.396
						c0.772,0,1.396,0.625,1.396,1.396v45.077C276.112,148.719,275.488,149.344,274.716,149.344z"/>
					<g>
						<circle fill="#EE9D25" cx="274.716" cy="98.749" r="4.986"/>
						<path fill="#FF9201" d="M274.716,104.733c-3.299,0-5.982-2.684-5.982-5.984c0-3.299,2.684-5.983,5.982-5.983
							c3.3,0,5.984,2.684,5.984,5.983C280.7,102.049,278.016,104.733,274.716,104.733z M274.716,94.761
							c-2.198,0-3.989,1.79-3.989,3.988c0,2.2,1.791,3.989,3.989,3.989c2.199,0,3.989-1.789,3.989-3.989
							C278.705,96.551,276.915,94.761,274.716,94.761z"/>
					</g>
				</g>
			</g>
			<path fill="#3C2415" d="M407.904,117.083h-10.871c-3.411-1.788-8.187-2.929-14.869-2.929c-11.089,0-18.622,2.12-22.501,6.262
				c-1.831-1-4.542-2.124-7.605-2.124s-5.773,1.124-7.605,2.124c-3.879-4.142-11.412-6.262-22.5-6.262
				c-6.684,0-11.458,1.141-14.87,2.929h-10.871v7.775l3.567,1.252c-0.365,1.459-0.514,2.938-0.514,4.362
				c0,9.663,2.352,22.508,22.688,22.508c18.162,0,22.927-11.174,25.191-22.104c0.342-1.657,0.38-3.235,0.149-4.718
				c0.887-0.566,2.347-1.063,4.764-1.063c2.417,0,3.877,0.497,4.764,1.063c-0.229,1.482-0.194,3.061,0.151,4.718
				c2.264,10.93,7.028,22.104,25.191,22.104c20.334,0,22.687-12.845,22.687-22.508c0-1.425-0.149-2.903-0.515-4.362l3.568-1.252
				V117.083z M343.239,130.067c-2.354,11.359-6.874,18.925-21.286,18.925c-16.433,0-18.699-8.902-18.699-18.52
				c0-3.049,0-10.334,18.699-10.334c12.9,0,17.31,1.914,19.304,4.364C342.667,126.233,343.782,127.449,343.239,130.067z
				 M382.164,148.992c-14.412,0-18.932-7.566-21.287-18.925c-0.542-2.618,0.572-3.834,1.982-5.565
				c1.994-2.45,6.404-4.364,19.305-4.364c18.697,0,18.697,7.285,18.697,10.334C400.861,140.09,398.596,148.992,382.164,148.992z"/>
		</g>
	</g>
</g>
<g id="confetti">
</g>
</svg>
